# xmcd
#
# Track frame offsets:
#	150
#	14397
#	32047
#	49452
#	68270
#	84060
#	97029
#	112535
#	127860
#	145187
#	160805
#	175052
#	192702
#	210107
#	228925
#	244717
#	257690
#	273192
#	288517
#	305847
#
# Disc length: 4286 seconds
#
# Revision: 2
# Processed by: cddbd v1.5.2PL0 Copyright (c) Steve Scherf et al.
# Submitted via: audiograbber 1.83.01
#
DISCID=0410bc14
DTITLE=Various Artist - THC0403
DYEAR=2004
DGENRE=Country
TTITLE0=Martina Mcbride - In My Daughter's Eyes (Vocal)
TTITLE1=Clint Black  - Spend My Time (Vocal)
TTITLE2=Toby Keith - American Soldier (Vocal)
TTITLE3=Gary Allan  - Songs About Rain (Vocal)
TTITLE4=Kenny Rogers - Handprints On The Wall (Vocal)
TTITLE5=Mark Wills  - That's A Woman (Vocal)
TTITLE6=Sonya Isaacs - No Regrets Yet  (Vocal)
TTITLE7=Clay Walker - I Can't Sleep (Vocal)
TTITLE8=Leann Rimes  - This Love (Vocal)
TTITLE9=Shania Twain And Alison Kraus - Coat Of Many Colors 
TTITLE10=Martina Mcbride - In My Daughter's Eyes 
TTITLE11=Clint Black - Spend My Time 
TTITLE12=Toby Keith - American Soldier 
TTITLE13=Gary Allan - Songs About Rain 
TTITLE14=Kenny Rogers - Handprints On The Wall 
TTITLE15=Mark Wills - That's A Woman
TTITLE16=Sonya Isaacs - No Regrets Yet
TTITLE17=Clay Walker - I Can't Sleep 
TTITLE18=Leann Rimes - This Love 
TTITLE19=Shania Twain And Alison Kraus - Coat Of Many Colors
EXTD=
EXTT0=
EXTT1=
EXTT2=
EXTT3=
EXTT4=
EXTT5=
EXTT6=
EXTT7=
EXTT8=
EXTT9=
EXTT10=
EXTT11=
EXTT12=
EXTT13=
EXTT14=
EXTT15=
EXTT16=
EXTT17=
EXTT18=
EXTT19=
PLAYORDER=
